<svg width="16" height="16" viewBox="0 0 16 16" fill="none" xmlns="http://www.w3.org/2000/svg">
<path d="M8.80913 8L12.9107 3.11094C12.9794 3.02969 12.9216 2.90625 12.8154 2.90625H11.5685C11.4951 2.90625 11.4248 2.93906 11.3763 2.99531L7.99351 7.02813L4.6107 2.99531C4.56382 2.93906 4.49351 2.90625 4.41851 2.90625H3.17163C3.06538 2.90625 3.00757 3.02969 3.07632 3.11094L7.17788 8L3.07632 12.8891C3.06092 12.9072 3.05104 12.9293 3.04785 12.9529C3.04467 12.9764 3.04831 13.0004 3.05834 13.022C3.06838 13.0435 3.08439 13.0617 3.10447 13.0745C3.12455 13.0872 3.14786 13.0939 3.17163 13.0938H4.41851C4.49195 13.0938 4.56226 13.0609 4.6107 13.0047L7.99351 8.97188L11.3763 13.0047C11.4232 13.0609 11.4935 13.0938 11.5685 13.0938H12.8154C12.9216 13.0938 12.9794 12.9703 12.9107 12.8891L8.80913 8Z" fill="#8C8C8C"/>
</svg>
