<svg width="16" height="16" viewBox="0 0 16 16" fill="none" xmlns="http://www.w3.org/2000/svg">
<path d="M12.1766 3.07179C10.7047 1.59992 8.30783 1.59992 6.83751 3.07179L2.75939 7.14679C2.73283 7.17336 2.71876 7.20929 2.71876 7.24679C2.71876 7.28429 2.73283 7.32023 2.75939 7.34679L3.33595 7.92336C3.36231 7.9496 3.39798 7.96433 3.43517 7.96433C3.47236 7.96433 3.50804 7.9496 3.53439 7.92336L7.61251 3.84836C8.11876 3.34211 8.7922 3.06398 9.50783 3.06398C10.2235 3.06398 10.8969 3.34211 11.4016 3.84836C11.9078 4.35461 12.186 5.02804 12.186 5.74211C12.186 6.45773 11.9078 7.12961 11.4016 7.63586L7.24533 11.7905L6.57189 12.464C5.9422 13.0937 4.91876 13.0937 4.28908 12.464C3.98439 12.1593 3.8172 11.7546 3.8172 11.3234C3.8172 10.8921 3.98439 10.4874 4.28908 10.1827L8.41251 6.06086C8.5172 5.95773 8.6547 5.89992 8.80158 5.89992H8.80314C8.95001 5.89992 9.08595 5.95773 9.18908 6.06086C9.29376 6.16554 9.35001 6.30304 9.35001 6.44992C9.35001 6.59523 9.2922 6.73273 9.18908 6.83586L5.81876 10.203C5.7922 10.2296 5.77814 10.2655 5.77814 10.303C5.77814 10.3405 5.7922 10.3765 5.81876 10.403L6.39533 10.9796C6.42168 11.0058 6.45736 11.0206 6.49455 11.0206C6.53173 11.0206 6.56741 11.0058 6.59376 10.9796L9.96251 7.61086C10.2735 7.29992 10.4438 6.88742 10.4438 6.44836C10.4438 6.00929 10.2719 5.59523 9.96251 5.28586C9.32033 4.64367 8.27658 4.64523 7.63439 5.28586L7.23439 5.68742L3.51251 9.40773C3.25991 9.65886 3.05967 9.95764 2.92341 10.2867C2.78716 10.6158 2.7176 10.9687 2.71876 11.3249C2.71876 12.0484 3.00158 12.728 3.51251 13.239C4.0422 13.7671 4.73595 14.0312 5.4297 14.0312C6.12345 14.0312 6.8172 13.7671 7.34533 13.239L12.1766 8.41086C12.8875 7.69836 13.2813 6.74992 13.2813 5.74211C13.2828 4.73273 12.8891 3.78429 12.1766 3.07179Z" fill="#8C8C8C"/>
</svg>
